  0
SECTION
  2
HEADER
  9
$ACADVER
  1
AC1009
  9
$INSBASE
 10
0.0
 20
0.0
 30
0.0
  9
$EXTMIN
 10
1.0
 20
8.0
 30
0.0
  9
$EXTMAX
 10
23.0
 20
28.0
 30
0.0
  9
$LIMMIN
 10
0.0
 20
0.0
  9
$LIMMAX
 10
30.0
 20
20.0
  9
$ORTHOMODE
 70
     1
  9
$REGENMODE
 70
     1
  9
$FILLMODE
 70
     1
  9
$QTEXTMODE
 70
     0
  9
$MIRRTEXT
 70
     1
  9
$DRAGMODE
 70
     2
  9
$LTSCALE
 40
1.0
  9
$OSMODE
 70
     0
  9
$ATTMODE
 70
     1
  9
$TEXTSIZE
 40
0.2
  9
$TRACEWID
 40
0.05
  9
$TEXTSTYLE
  7
STANDARD
  9
$CLAYER
  8
0
  9
$CELTYPE
  6
BYLAYER
  9
$CECOLOR
 62
   256
  9
$DIMSCALE
 40
1.0
  9
$DIMASZ
 40
0.18
  9
$DIMEXO
 40
0.0625
  9
$DIMDLI
 40
0.38
  9
$DIMRND
 40
0.0
  9
$DIMDLE
 40
0.0
  9
$DIMEXE
 40
0.18
  9
$DIMTP
 40
0.0
  9
$DIMTM
 40
0.0
  9
$DIMTXT
 40
0.18
  9
$DIMCEN
 40
0.09
  9
$DIMTSZ
 40
0.0
  9
$DIMTOL
 70
     0
  9
$DIMLIM
 70
     0
  9
$DIMTIH
 70
     0
  9
$DIMTOH
 70
     1
  9
$DIMSE1
 70
     0
  9
$DIMSE2
 70
     0
  9
$DIMTAD
 70
     1
  9
$DIMZIN
 70
     0
  9
$DIMBLK
  1

  9
$DIMASO
 70
     1
  9
$DIMSHO
 70
     1
  9
$DIMPOST
  1

  9
$DIMAPOST
  1

  9
$DIMALT
 70
     0
  9
$DIMALTD
 70
     2
  9
$DIMALTF
 40
25.4
  9
$DIMLFAC
 40
1.0
  9
$DIMTOFL
 70
     0
  9
$DIMTVP
 40
0.0
  9
$DIMTIX
 70
     0
  9
$DIMSOXD
 70
     0
  9
$DIMSAH
 70
     0
  9
$DIMBLK1
  1

  9
$DIMBLK2
  1

  9
$DIMSTYLE
  2
*UNNAMED
  9
$DIMCLRD
 70
     0
  9
$DIMCLRE
 70
     0
  9
$DIMCLRT
 70
     0
  9
$DIMTFAC
 40
1.0
  9
$DIMGAP
 40
0.09
  9
$LUNITS
 70
     2
  9
$LUPREC
 70
     2
  9
$SKETCHINC
 40
0.1
  9
$FILLETRAD
 40
0.0
  9
$AUNITS
 70
     0
  9
$AUPREC
 70
     0
  9
$MENU
  1
acad
  9
$ELEVATION
 40
0.0
  9
$PELEVATION
 40
0.0
  9
$THICKNESS
 40
0.0
  9
$LIMCHECK
 70
     0
  9
$BLIPMODE
 70
     1
  9
$CHAMFERA
 40
0.0
  9
$CHAMFERB
 40
0.0
  9
$SKPOLY
 70
     0
  9
$TDCREATE
 40
2450309.975563773
  9
$TDUPDATE
 40
2450309.975563773
  9
$TDINDWG
 40
0.0000000000
  9
$TDUSRTIMER
 40
0.0000000000
  9
$USRTIMER
 70
     1
  9
$ANGBASE
 50
0.0
  9
$ANGDIR
 70
     0
  9
$PDMODE
 70
     0
  9
$PDSIZE
 40
0.0
  9
$PLINEWID
 40
0.0
  9
$COORDS
 70
     2
  9
$SPLFRAME
 70
     0
  9
$SPLINETYPE
 70
     6
  9
$SPLINESEGS
 70
     8
  9
$ATTDIA
 70
     0
  9
$ATTREQ
 70
     1
  9
$HANDLING
 70
     0
  9
$HANDSEED
  5
0
  9
$SURFTAB1
 70
     6
  9
$SURFTAB2
 70
     6
  9
$SURFTYPE
 70
     6
  9
$SURFU
 70
     6
  9
$SURFV
 70
     6
  9
$UCSNAME
  2

  9
$UCSORG
 10
0.0
 20
0.0
 30
0.0
  9
$UCSXDIR
 10
1.0
 20
0.0
 30
0.0
  9
$UCSYDIR
 10
0.0
 20
1.0
 30
0.0
  9
$PUCSNAME
  2

  9
$PUCSORG
 10
0.0
 20
0.0
 30
0.0
  9
$PUCSXDIR
 10
1.0
 20
0.0
 30
0.0
  9
$PUCSYDIR
 10
0.0
 20
1.0
 30
0.0
  9
$USERI1
 70
     0
  9
$USERI2
 70
     0
  9
$USERI3
 70
     0
  9
$USERI4
 70
     0
  9
$USERI5
 70
     0
  9
$USERR1
 40
0.0
  9
$USERR2
 40
0.0
  9
$USERR3
 40
0.0
  9
$USERR4
 40
0.0
  9
$USERR5
 40
0.0
  9
$WORLDVIEW
 70
     1
  9
$SHADEDGE
 70
     3
  9
$SHADEDIF
 70
    70
  9
$TILEMODE
 70
     1
  9
$MAXACTVP
 70
    16
  9
$PINSBASE
 10
0.0
 20
0.0
 30
0.0
  9
$PLIMCHECK
 70
     0
  9
$PEXTMIN
 10
1.0000E+20
 20
1.0000E+20
 30
1.0000E+20
  9
$PEXTMAX
 10
-1.0000E+20
 20
-1.0000E+20
 30
-1.0000E+20
  9
$PLIMMIN
 10
0.0
 20
0.0
  9
$PLIMMAX
 10
12.0
 20
9.0
  9
$UNITMODE
 70
     0
  9
$VISRETAIN
 70
     0
  9
$PLINEGEN
 70
     0
  9
$PSLTSCALE
 70
     1
  9
$TREEDEPTH
 70
  3020
  9
$DWGCODEPAGE
  3
ascii
  0
ENDSEC
  0
SECTION
  2
TABLES
  0
TABLE
  2
VPORT
 70
     2
  0
VPORT
  2
*ACTIVE
 70
     0
 10
0.0
 20
0.0
 11
1.0
 21
1.0
 12
15.0
 22
11.101231
 13
0.0
 23
0.0
 14
0.1
 24
0.1
 15
0.5
 25
0.5
 16
0.0
 26
0.0
 36
1.0
 17
0.0
 27
0.0
 37
0.0
 40
22.202462
 41
1.351201
 42
50.0
 43
0.0
 44
0.0
 50
0.0
 51
0.0
 71
     0
 72
   100
 73
     1
 74
     1
 75
     1
 76
     0
 77
     0
 78
     0
  0
ENDTAB
  0
TABLE
  2
LTYPE
 70
    25
  0
LTYPE
  2
CONTINUOUS
 70
    64
  3
Solid line
 72
    65
 73
     0
 40
0.0
  0
LTYPE
  2
BORDER
 70
    64
  3
__ __ . __ __ . __ __ . __ __ . __ __ . __ __ .
 72
    65
 73
     6
 40
1.75
 49
0.5
 49
-0.25
 49
0.5
 49
-0.25
 49
0.0
 49
-0.25
  0
LTYPE
  2
BORDER2
 70
    64
  3
__.__.__.__.__.__.__.__.__.__.__.__.__.__.__.__
 72
    65
 73
     6
 40
0.875
 49
0.25
 49
-0.125
 49
0.25
 49
-0.125
 49
0.0
 49
-0.125
  0
LTYPE
  2
BORDERX2
 70
    64
  3
____  ____  .  ____  ____  .  ____  ____  .  __
 72
    65
 73
     6
 40
3.5
 49
1.0
 49
-0.5
 49
1.0
 49
-0.5
 49
0.0
 49
-0.5
  0
LTYPE
  2
CENTER
 70
    64
  3
____ _ ____ _ ____ _ ____ _ ____ _ ____ _ ____ 
 72
    65
 73
     4
 40
2.0
 49
1.25
 49
-0.25
 49
0.25
 49
-0.25
  0
LTYPE
  2
CENTER2
 70
    64
  3
___ _ ___ _ ___ _ ___ _ ___ _ ___ _ ___ _ ___ _
 72
    65
 73
     4
 40
1.125
 49
0.75
 49
-0.125
 49
0.125
 49
-0.125
  0
LTYPE
  2
CENTERX2
 70
    64
  3
________  __  ________  __  ________  __  _____
 72
    65
 73
     4
 40
4.0
 49
2.5
 49
-0.5
 49
0.5
 49
-0.5
  0
LTYPE
  2
DASHDOT
 70
    64
  3
__ . __ . __ . __ . __ . __ . __ . __ . __ . __
 72
    65
 73
     4
 40
1.0
 49
0.5
 49
-0.25
 49
0.0
 49
-0.25
  0
LTYPE
  2
DASHDOT2
 70
    64
  3
_._._._._._._._._._._._._._._._._._._._._._._._
 72
    65
 73
     4
 40
0.5
 49
0.25
 49
-0.125
 49
0.0
 49
-0.125
  0
LTYPE
  2
DASHDOTX2
 70
    64
  3
____  .  ____  .  ____  .  ____  .  ____  .  __
 72
    65
 73
     4
 40
2.0
 49
1.0
 49
-0.5
 49
0.0
 49
-0.5
  0
LTYPE
  2
DASHED
 70
    64
  3
__ __ __ __ __ __ __ __ __ __ __ __ __ __ __ __
 72
    65
 73
     2
 40
0.75
 49
0.5
 49
-0.25
  0
LTYPE
  2
DASHED2
 70
    64
  3
_ _ _ _ _ _ _ _ _ _ _ _ _ _ _ _ _ _ _ _ _ _ _ _
 72
    65
 73
     2
 40
0.375
 49
0.25
 49
-0.125
  0
LTYPE
  2
DASHEDX2
 70
    64
  3
____  ____  ____  ____  ____  ____  ____  ____ 
 72
    65
 73
     2
 40
1.5
 49
1.0
 49
-0.5
  0
LTYPE
  2
DIVIDE
 70
    64
  3
____ . . ____ . . ____ . . ____ . . ____ . . __
 72
    65
 73
     6
 40
1.25
 49
0.5
 49
-0.25
 49
0.0
 49
-0.25
 49
0.0
 49
-0.25
  0
LTYPE
  2
DIVIDE2
 70
    64
  3
__..__..__..__..__..__..__..__..__..__..__..__.
 72
    65
 73
     6
 40
0.625
 49
0.25
 49
-0.125
 49
0.0
 49
-0.125
 49
0.0
 49
-0.125
  0
LTYPE
  2
DIVIDEX2
 70
    64
  3
________  .  .  ________  .  .  ________  .  . 
 72
    65
 73
     6
 40
2.5
 49
1.0
 49
-0.5
 49
0.0
 49
-0.5
 49
0.0
 49
-0.5
  0
LTYPE
  2
DOT
 70
    64
  3
. . . . . . . . . . . . . . . . . . . . . . . .
 72
    65
 73
     2
 40
0.25
 49
0.0
 49
-0.25
  0
LTYPE
  2
DOT2
 70
    64
  3
...............................................
 72
    65
 73
     2
 40
0.125
 49
0.0
 49
-0.125
  0
LTYPE
  2
DOTX2
 70
    64
  3
.  .  .  .  .  .  .  .  .  .  .  .  .  .  .  . 
 72
    65
 73
     2
 40
0.5
 49
0.0
 49
-0.5
  0
LTYPE
  2
HIDDEN
 70
    64
  3
__ __ __ __ __ __ __ __ __ __ __ __ __ __ __ __
 72
    65
 73
     2
 40
0.375
 49
0.25
 49
-0.125
  0
LTYPE
  2
HIDDEN2
 70
    64
  3
_ _ _ _ _ _ _ _ _ _ _ _ _ _ _ _ _ _ _ _ _ _ _ _
 72
    65
 73
     2
 40
0.1875
 49
0.125
 49
-0.0625
  0
LTYPE
  2
HIDDENX2
 70
    64
  3
____ ____ ____ ____ ____ ____ ____ ____ ____ __
 72
    65
 73
     2
 40
0.75
 49
0.5
 49
-0.25
  0
LTYPE
  2
PHANTOM
 70
    64
  3
______  __  __  ______  __  __  ______  __  __ 
 72
    65
 73
     6
 40
2.5
 49
1.25
 49
-0.25
 49
0.25
 49
-0.25
 49
0.25
 49
-0.25
  0
LTYPE
  2
PHANTOM2
 70
    64
  3
___ _ _ ___ _ _ ___ _ _ ___ _ _ ___ _ _ ___ _ _
 72
    65
 73
     6
 40
1.25
 49
0.625
 49
-0.125
 49
0.125
 49
-0.125
 49
0.125
 49
-0.125
  0
LTYPE
  2
PHANTOMX2
 70
    64
  3
____________    ____    ____    ____________   
 72
    65
 73
     6
 40
5.0
 49
2.5
 49
-0.5
 49
0.5
 49
-0.5
 49
0.5
 49
-0.5
  0
ENDTAB
  0
TABLE
  2
LAYER
 70
     1
  0
LAYER
  2
0
 70
     0
 62
     7
  6
CONTINUOUS
  0
ENDTAB
  0
TABLE
  2
STYLE
 70
     1
  0
STYLE
  2
STANDARD
 70
     0
 40
0.0
 41
1.0
 50
0.0
 71
     0
 42
0.2
  3
txt
  4

  0
ENDTAB
  0
TABLE
  2
VIEW
 70
     0
  0
ENDTAB
  0
TABLE
  2
UCS
 70
     0
  0
ENDTAB
  0
TABLE
  2
APPID
 70
     1
  0
APPID
  2
ACAD
 70
    64
  0
ENDTAB
  0
TABLE
  2
DIMSTYLE
 70
     0
  0
ENDTAB
  0
ENDSEC
  0
SECTION
  2
BLOCKS
  0
ENDSEC
  0
SECTION
  2
ENTITIES
  0
POLYLINE
  8
0
 66
1
  6
CONTINUOUS
62
   7 
  0
VERTEX
  8
0
 10
 100 
 20
 0 
 30
0.0
  0
VERTEX
  8
0
 10
 99.692 
 20
 0.141 
 30
0.0
  0
VERTEX
  8
0
 10
 98.842 
 20
 0.552 
 30
0.0
  0
VERTEX
  8
0
 10
 97.564 
 20
 1.157 
 30
0.0
  0
VERTEX
  8
0
 10
 95.877 
 20
 1.84 
 30
0.0
  0
VERTEX
  8
0
 10
 93.743 
 20
 2.552 
 30
0.0
  0
VERTEX
  8
0
 10
 91.162 
 20
 3.3 
 30
0.0
  0
VERTEX
  8
0
 10
 88.17 
 20
 4.079 
 30
0.0
  0
VERTEX
  8
0
 10
 84.805 
 20
 4.868 
 30
0.0
  0
VERTEX
  8
0
 10
 81.104 
 20
 5.651 
 30
0.0
  0
VERTEX
  8
0
 10
 77.107 
 20
 6.407 
 30
0.0
  0
VERTEX
  8
0
 10
 72.855 
 20
 7.12 
 30
0.0
  0
VERTEX
  8
0
 10
 68.39 
 20
 7.773 
 30
0.0
  0
VERTEX
  8
0
 10
 63.757 
 20
 8.353 
 30
0.0
  0
VERTEX
  8
0
 10
 59.004 
 20
 8.847 
 30
0.0
  0
VERTEX
  8
0
 10
 54.177 
 20
 9.243 
 30
0.0
  0
VERTEX
  8
0
 10
 49.323 
 20
 9.532 
 30
0.0
  0
VERTEX
  8
0
 10
 44.49 
 20
 9.704 
 30
0.0
  0
VERTEX
  8
0
 10
 39.722 
 20
 9.754 
 30
0.0
  0
VERTEX
  8
0
 10
 35.064 
 20
 9.678 
 30
0.0
  0
VERTEX
  8
0
 10
 30.56 
 20
 9.475 
 30
0.0
  0
VERTEX
  8
0
 10
 26.249 
 20
 9.144 
 30
0.0
  0
VERTEX
  8
0
 10
 22.169 
 20
 8.69 
 30
0.0
  0
VERTEX
  8
0
 10
 18.354 
 20
 8.119 
 30
0.0
  0
VERTEX
  8
0
 10
 14.836 
 20
 7.439 
 30
0.0
  0
VERTEX
  8
0
 10
 11.644 
 20
 6.665 
 30
0.0
  0
VERTEX
  8
0
 10
 8.803 
 20
 5.809 
 30
0.0
  0
VERTEX
  8
0
 10
 6.333 
 20
 4.891 
 30
0.0
  0
VERTEX
  8
0
 10
 4.254 
 20
 3.93 
 30
0.0
  0
VERTEX
  8
0
 10
 2.576 
 20
 2.951 
 30
0.0
  0
VERTEX
  8
0
 10
 1.311 
 20
 1.981 
 30
0.0
  0
VERTEX
  8
0
 10
 0.461 
 20
 1.058 
 30
0.0
  0
VERTEX
  8
0
 10
 0.031 
 20
 0.238 
 30
0.0
  0
VERTEX
  8
0
 10
 0.108 
 20
-0.385 
 30
0.0
  0
VERTEX
  8
0
 10
 0.769 
 20
-0.866 
 30
0.0
  0
VERTEX
  8
0
 10
 1.979 
 20
-1.291 
 30
0.0
  0
VERTEX
  8
0
 10
 3.703 
 20
-1.63 
 30
0.0
  0
VERTEX
  8
0
 10
 5.924 
 20
-1.869 
 30
0.0
  0
VERTEX
  8
0
 10
 8.628 
 20
-1.999 
 30
0.0
  0
VERTEX
  8
0
 10
 11.795 
 20
-2.02 
 30
0.0
  0
VERTEX
  8
0
 10
 15.401 
 20
-1.932 
 30
0.0
  0
VERTEX
  8
0
 10
 19.42 
 20
-1.742 
 30
0.0
  0
VERTEX
  8
0
 10
 23.817 
 20
-1.46 
 30
0.0
  0
VERTEX
  8
0
 10
 28.554 
 20
-1.098 
 30
0.0
  0
VERTEX
  8
0
 10
 33.588 
 20
-0.675 
 30
0.0
  0
VERTEX
  8
0
 10
 38.868 
 20
-0.21 
 30
0.0
  0
VERTEX
  8
0
 10
 44.341 
 20
 0.276 
 30
0.0
  0
VERTEX
  8
0
 10
 49.945 
 20
 0.757 
 30
0.0
  0
VERTEX
  8
0
 10
 55.614 
 20
 1.211 
 30
0.0
  0
VERTEX
  8
0
 10
 61.279 
 20
 1.611 
 30
0.0
  0
VERTEX
  8
0
 10
 66.862 
 20
 1.937 
 30
0.0
  0
VERTEX
  8
0
 10
 72.287 
 20
 2.167 
 30
0.0
  0
VERTEX
  8
0
 10
 77.471 
 20
 2.284 
 30
0.0
  0
VERTEX
  8
0
 10
 82.331 
 20
 2.277 
 30
0.0
  0
VERTEX
  8
0
 10
 86.782 
 20
 2.137 
 30
0.0
  0
VERTEX
  8
0
 10
 90.737 
 20
 1.863 
 30
0.0
  0
VERTEX
  8
0
 10
 94.105 
 20
 1.456 
 30
0.0
  0
VERTEX
  8
0
 10
 96.763 
 20
 0.945 
 30
0.0
  0
VERTEX
  8
0
 10
 98.608 
 20
 0.449 
 30
0.0
  0
VERTEX
  8
0
 10
 99.661 
 20
 0.113 
 30
0.0
  0
VERTEX
  8
0
 10
 100 
 20
 0 
 30
0.0
  0
SEQEND
  0
LINE
  8
0
62
   1 
10
 0 
20
 0 
30
0.00
11
 100 
21
 0 
31
0.00
  0
CIRCLE
  8
0
62
     2 
10
 100 
20
 0 
30
 0 
40
 1 
  0
CIRCLE
  8
0
62
     2 
10
 99.692 
20
 0.141 
30
 0 
40
 1 
  0
CIRCLE
  8
0
62
     2 
10
 98.842 
20
 0.552 
30
 0 
40
 1 
  0
CIRCLE
  8
0
62
     2 
10
 97.564 
20
 1.157 
30
 0 
40
 1 
  0
CIRCLE
  8
0
62
     2 
10
 95.877 
20
 1.84 
30
 0 
40
 1 
  0
CIRCLE
  8
0
62
     2 
10
 93.743 
20
 2.552 
30
 0 
40
 1 
  0
CIRCLE
  8
0
62
     2 
10
 91.162 
20
 3.3 
30
 0 
40
 1 
  0
CIRCLE
  8
0
62
     2 
10
 88.17 
20
 4.079 
30
 0 
40
 1 
  0
CIRCLE
  8
0
62
     2 
10
 84.805 
20
 4.868 
30
 0 
40
 1 
  0
CIRCLE
  8
0
62
     2 
10
 81.104 
20
 5.651 
30
 0 
40
 1 
  0
CIRCLE
  8
0
62
     2 
10
 77.107 
20
 6.407 
30
 0 
40
 1 
  0
CIRCLE
  8
0
62
     2 
10
 72.855 
20
 7.12 
30
 0 
40
 1 
  0
CIRCLE
  8
0
62
     2 
10
 68.39 
20
 7.773 
30
 0 
40
 1 
  0
CIRCLE
  8
0
62
     2 
10
 63.757 
20
 8.353 
30
 0 
40
 1 
  0
CIRCLE
  8
0
62
     2 
10
 59.004 
20
 8.847 
30
 0 
40
 1 
  0
CIRCLE
  8
0
62
     2 
10
 54.177 
20
 9.243 
30
 0 
40
 1 
  0
CIRCLE
  8
0
62
     2 
10
 49.323 
20
 9.532 
30
 0 
40
 1 
  0
CIRCLE
  8
0
62
     2 
10
 44.49 
20
 9.704 
30
 0 
40
 1 
  0
CIRCLE
  8
0
62
     2 
10
 39.722 
20
 9.754 
30
 0 
40
 1 
  0
CIRCLE
  8
0
62
     2 
10
 35.064 
20
 9.678 
30
 0 
40
 1 
  0
CIRCLE
  8
0
62
     2 
10
 30.56 
20
 9.475 
30
 0 
40
 1 
  0
CIRCLE
  8
0
62
     2 
10
 26.249 
20
 9.144 
30
 0 
40
 1 
  0
CIRCLE
  8
0
62
     2 
10
 22.169 
20
 8.69 
30
 0 
40
 1 
  0
CIRCLE
  8
0
62
     2 
10
 18.354 
20
 8.119 
30
 0 
40
 1 
  0
CIRCLE
  8
0
62
     2 
10
 14.836 
20
 7.439 
30
 0 
40
 1 
  0
CIRCLE
  8
0
62
     2 
10
 11.644 
20
 6.665 
30
 0 
40
 1 
  0
CIRCLE
  8
0
62
     2 
10
 8.803 
20
 5.809 
30
 0 
40
 1 
  0
CIRCLE
  8
0
62
     2 
10
 6.333 
20
 4.891 
30
 0 
40
 1 
  0
CIRCLE
  8
0
62
     2 
10
 4.254 
20
 3.93 
30
 0 
40
 1 
  0
CIRCLE
  8
0
62
     2 
10
 2.576 
20
 2.951 
30
 0 
40
 1 
  0
CIRCLE
  8
0
62
     2 
10
 1.311 
20
 1.981 
30
 0 
40
 1 
  0
CIRCLE
  8
0
62
     2 
10
 0.461 
20
 1.058 
30
 0 
40
 1 
  0
CIRCLE
  8
0
62
     2 
10
 0.031 
20
 0.238 
30
 0 
40
 1 
  0
CIRCLE
  8
0
62
     2 
10
 0.108 
20
-0.385 
30
 0 
40
 1 
  0
CIRCLE
  8
0
62
     2 
10
 0.769 
20
-0.866 
30
 0 
40
 1 
  0
CIRCLE
  8
0
62
     2 
10
 1.979 
20
-1.291 
30
 0 
40
 1 
  0
CIRCLE
  8
0
62
     2 
10
 3.703 
20
-1.63 
30
 0 
40
 1 
  0
CIRCLE
  8
0
62
     2 
10
 5.924 
20
-1.869 
30
 0 
40
 1 
  0
CIRCLE
  8
0
62
     2 
10
 8.628 
20
-1.999 
30
 0 
40
 1 
  0
CIRCLE
  8
0
62
     2 
10
 11.795 
20
-2.02 
30
 0 
40
 1 
  0
CIRCLE
  8
0
62
     2 
10
 15.401 
20
-1.932 
30
 0 
40
 1 
  0
CIRCLE
  8
0
62
     2 
10
 19.42 
20
-1.742 
30
 0 
40
 1 
  0
CIRCLE
  8
0
62
     2 
10
 23.817 
20
-1.46 
30
 0 
40
 1 
  0
CIRCLE
  8
0
62
     2 
10
 28.554 
20
-1.098 
30
 0 
40
 1 
  0
CIRCLE
  8
0
62
     2 
10
 33.588 
20
-0.675 
30
 0 
40
 1 
  0
CIRCLE
  8
0
62
     2 
10
 38.868 
20
-0.21 
30
 0 
40
 1 
  0
CIRCLE
  8
0
62
     2 
10
 44.341 
20
 0.276 
30
 0 
40
 1 
  0
CIRCLE
  8
0
62
     2 
10
 49.945 
20
 0.757 
30
 0 
40
 1 
  0
CIRCLE
  8
0
62
     2 
10
 55.614 
20
 1.211 
30
 0 
40
 1 
  0
CIRCLE
  8
0
62
     2 
10
 61.279 
20
 1.611 
30
 0 
40
 1 
  0
CIRCLE
  8
0
62
     2 
10
 66.862 
20
 1.937 
30
 0 
40
 1 
  0
CIRCLE
  8
0
62
     2 
10
 72.287 
20
 2.167 
30
 0 
40
 1 
  0
CIRCLE
  8
0
62
     2 
10
 77.471 
20
 2.284 
30
 0 
40
 1 
  0
CIRCLE
  8
0
62
     2 
10
 82.331 
20
 2.277 
30
 0 
40
 1 
  0
CIRCLE
  8
0
62
     2 
10
 86.782 
20
 2.137 
30
 0 
40
 1 
  0
CIRCLE
  8
0
62
     2 
10
 90.737 
20
 1.863 
30
 0 
40
 1 
  0
CIRCLE
  8
0
62
     2 
10
 94.105 
20
 1.456 
30
 0 
40
 1 
  0
CIRCLE
  8
0
62
     2 
10
 96.763 
20
 0.945 
30
 0 
40
 1 
  0
CIRCLE
  8
0
62
     2 
10
 98.608 
20
 0.449 
30
 0 
40
 1 
  0
CIRCLE
  8
0
62
     2 
10
 99.661 
20
 0.113 
30
 0 
40
 1 
  0
CIRCLE
  8
0
62
     2 
10
 100 
20
 0 
30
 0 
40
 1 
  0
TEXT
  8
0
62
   3 
10
 20 
20
 1 
30
 0 
40
 2 
  1
e216
50
 0 
  0
ENDSEC
  0
EOF
