  0
SECTION
  2
HEADER
  9
$ACADVER
  1
AC1009
  9
$INSBASE
 10
0.0
 20
0.0
 30
0.0
  9
$EXTMIN
 10
1.0
 20
8.0
 30
0.0
  9
$EXTMAX
 10
23.0
 20
28.0
 30
0.0
  9
$LIMMIN
 10
0.0
 20
0.0
  9
$LIMMAX
 10
30.0
 20
20.0
  9
$ORTHOMODE
 70
     1
  9
$REGENMODE
 70
     1
  9
$FILLMODE
 70
     1
  9
$QTEXTMODE
 70
     0
  9
$MIRRTEXT
 70
     1
  9
$DRAGMODE
 70
     2
  9
$LTSCALE
 40
1.0
  9
$OSMODE
 70
     0
  9
$ATTMODE
 70
     1
  9
$TEXTSIZE
 40
0.2
  9
$TRACEWID
 40
0.05
  9
$TEXTSTYLE
  7
STANDARD
  9
$CLAYER
  8
0
  9
$CELTYPE
  6
BYLAYER
  9
$CECOLOR
 62
   256
  9
$DIMSCALE
 40
1.0
  9
$DIMASZ
 40
0.18
  9
$DIMEXO
 40
0.0625
  9
$DIMDLI
 40
0.38
  9
$DIMRND
 40
0.0
  9
$DIMDLE
 40
0.0
  9
$DIMEXE
 40
0.18
  9
$DIMTP
 40
0.0
  9
$DIMTM
 40
0.0
  9
$DIMTXT
 40
0.18
  9
$DIMCEN
 40
0.09
  9
$DIMTSZ
 40
0.0
  9
$DIMTOL
 70
     0
  9
$DIMLIM
 70
     0
  9
$DIMTIH
 70
     0
  9
$DIMTOH
 70
     1
  9
$DIMSE1
 70
     0
  9
$DIMSE2
 70
     0
  9
$DIMTAD
 70
     1
  9
$DIMZIN
 70
     0
  9
$DIMBLK
  1

  9
$DIMASO
 70
     1
  9
$DIMSHO
 70
     1
  9
$DIMPOST
  1

  9
$DIMAPOST
  1

  9
$DIMALT
 70
     0
  9
$DIMALTD
 70
     2
  9
$DIMALTF
 40
25.4
  9
$DIMLFAC
 40
1.0
  9
$DIMTOFL
 70
     0
  9
$DIMTVP
 40
0.0
  9
$DIMTIX
 70
     0
  9
$DIMSOXD
 70
     0
  9
$DIMSAH
 70
     0
  9
$DIMBLK1
  1

  9
$DIMBLK2
  1

  9
$DIMSTYLE
  2
*UNNAMED
  9
$DIMCLRD
 70
     0
  9
$DIMCLRE
 70
     0
  9
$DIMCLRT
 70
     0
  9
$DIMTFAC
 40
1.0
  9
$DIMGAP
 40
0.09
  9
$LUNITS
 70
     2
  9
$LUPREC
 70
     2
  9
$SKETCHINC
 40
0.1
  9
$FILLETRAD
 40
0.0
  9
$AUNITS
 70
     0
  9
$AUPREC
 70
     0
  9
$MENU
  1
acad
  9
$ELEVATION
 40
0.0
  9
$PELEVATION
 40
0.0
  9
$THICKNESS
 40
0.0
  9
$LIMCHECK
 70
     0
  9
$BLIPMODE
 70
     1
  9
$CHAMFERA
 40
0.0
  9
$CHAMFERB
 40
0.0
  9
$SKPOLY
 70
     0
  9
$TDCREATE
 40
2450309.975563773
  9
$TDUPDATE
 40
2450309.975563773
  9
$TDINDWG
 40
0.0000000000
  9
$TDUSRTIMER
 40
0.0000000000
  9
$USRTIMER
 70
     1
  9
$ANGBASE
 50
0.0
  9
$ANGDIR
 70
     0
  9
$PDMODE
 70
     0
  9
$PDSIZE
 40
0.0
  9
$PLINEWID
 40
0.0
  9
$COORDS
 70
     2
  9
$SPLFRAME
 70
     0
  9
$SPLINETYPE
 70
     6
  9
$SPLINESEGS
 70
     8
  9
$ATTDIA
 70
     0
  9
$ATTREQ
 70
     1
  9
$HANDLING
 70
     0
  9
$HANDSEED
  5
0
  9
$SURFTAB1
 70
     6
  9
$SURFTAB2
 70
     6
  9
$SURFTYPE
 70
     6
  9
$SURFU
 70
     6
  9
$SURFV
 70
     6
  9
$UCSNAME
  2

  9
$UCSORG
 10
0.0
 20
0.0
 30
0.0
  9
$UCSXDIR
 10
1.0
 20
0.0
 30
0.0
  9
$UCSYDIR
 10
0.0
 20
1.0
 30
0.0
  9
$PUCSNAME
  2

  9
$PUCSORG
 10
0.0
 20
0.0
 30
0.0
  9
$PUCSXDIR
 10
1.0
 20
0.0
 30
0.0
  9
$PUCSYDIR
 10
0.0
 20
1.0
 30
0.0
  9
$USERI1
 70
     0
  9
$USERI2
 70
     0
  9
$USERI3
 70
     0
  9
$USERI4
 70
     0
  9
$USERI5
 70
     0
  9
$USERR1
 40
0.0
  9
$USERR2
 40
0.0
  9
$USERR3
 40
0.0
  9
$USERR4
 40
0.0
  9
$USERR5
 40
0.0
  9
$WORLDVIEW
 70
     1
  9
$SHADEDGE
 70
     3
  9
$SHADEDIF
 70
    70
  9
$TILEMODE
 70
     1
  9
$MAXACTVP
 70
    16
  9
$PINSBASE
 10
0.0
 20
0.0
 30
0.0
  9
$PLIMCHECK
 70
     0
  9
$PEXTMIN
 10
1.0000E+20
 20
1.0000E+20
 30
1.0000E+20
  9
$PEXTMAX
 10
-1.0000E+20
 20
-1.0000E+20
 30
-1.0000E+20
  9
$PLIMMIN
 10
0.0
 20
0.0
  9
$PLIMMAX
 10
12.0
 20
9.0
  9
$UNITMODE
 70
     0
  9
$VISRETAIN
 70
     0
  9
$PLINEGEN
 70
     0
  9
$PSLTSCALE
 70
     1
  9
$TREEDEPTH
 70
  3020
  9
$DWGCODEPAGE
  3
ascii
  0
ENDSEC
  0
SECTION
  2
TABLES
  0
TABLE
  2
VPORT
 70
     2
  0
VPORT
  2
*ACTIVE
 70
     0
 10
0.0
 20
0.0
 11
1.0
 21
1.0
 12
15.0
 22
11.101231
 13
0.0
 23
0.0
 14
0.1
 24
0.1
 15
0.5
 25
0.5
 16
0.0
 26
0.0
 36
1.0
 17
0.0
 27
0.0
 37
0.0
 40
22.202462
 41
1.351201
 42
50.0
 43
0.0
 44
0.0
 50
0.0
 51
0.0
 71
     0
 72
   100
 73
     1
 74
     1
 75
     1
 76
     0
 77
     0
 78
     0
  0
ENDTAB
  0
TABLE
  2
LTYPE
 70
    25
  0
LTYPE
  2
CONTINUOUS
 70
    64
  3
Solid line
 72
    65
 73
     0
 40
0.0
  0
LTYPE
  2
BORDER
 70
    64
  3
__ __ . __ __ . __ __ . __ __ . __ __ . __ __ .
 72
    65
 73
     6
 40
1.75
 49
0.5
 49
-0.25
 49
0.5
 49
-0.25
 49
0.0
 49
-0.25
  0
LTYPE
  2
BORDER2
 70
    64
  3
__.__.__.__.__.__.__.__.__.__.__.__.__.__.__.__
 72
    65
 73
     6
 40
0.875
 49
0.25
 49
-0.125
 49
0.25
 49
-0.125
 49
0.0
 49
-0.125
  0
LTYPE
  2
BORDERX2
 70
    64
  3
____  ____  .  ____  ____  .  ____  ____  .  __
 72
    65
 73
     6
 40
3.5
 49
1.0
 49
-0.5
 49
1.0
 49
-0.5
 49
0.0
 49
-0.5
  0
LTYPE
  2
CENTER
 70
    64
  3
____ _ ____ _ ____ _ ____ _ ____ _ ____ _ ____ 
 72
    65
 73
     4
 40
2.0
 49
1.25
 49
-0.25
 49
0.25
 49
-0.25
  0
LTYPE
  2
CENTER2
 70
    64
  3
___ _ ___ _ ___ _ ___ _ ___ _ ___ _ ___ _ ___ _
 72
    65
 73
     4
 40
1.125
 49
0.75
 49
-0.125
 49
0.125
 49
-0.125
  0
LTYPE
  2
CENTERX2
 70
    64
  3
________  __  ________  __  ________  __  _____
 72
    65
 73
     4
 40
4.0
 49
2.5
 49
-0.5
 49
0.5
 49
-0.5
  0
LTYPE
  2
DASHDOT
 70
    64
  3
__ . __ . __ . __ . __ . __ . __ . __ . __ . __
 72
    65
 73
     4
 40
1.0
 49
0.5
 49
-0.25
 49
0.0
 49
-0.25
  0
LTYPE
  2
DASHDOT2
 70
    64
  3
_._._._._._._._._._._._._._._._._._._._._._._._
 72
    65
 73
     4
 40
0.5
 49
0.25
 49
-0.125
 49
0.0
 49
-0.125
  0
LTYPE
  2
DASHDOTX2
 70
    64
  3
____  .  ____  .  ____  .  ____  .  ____  .  __
 72
    65
 73
     4
 40
2.0
 49
1.0
 49
-0.5
 49
0.0
 49
-0.5
  0
LTYPE
  2
DASHED
 70
    64
  3
__ __ __ __ __ __ __ __ __ __ __ __ __ __ __ __
 72
    65
 73
     2
 40
0.75
 49
0.5
 49
-0.25
  0
LTYPE
  2
DASHED2
 70
    64
  3
_ _ _ _ _ _ _ _ _ _ _ _ _ _ _ _ _ _ _ _ _ _ _ _
 72
    65
 73
     2
 40
0.375
 49
0.25
 49
-0.125
  0
LTYPE
  2
DASHEDX2
 70
    64
  3
____  ____  ____  ____  ____  ____  ____  ____ 
 72
    65
 73
     2
 40
1.5
 49
1.0
 49
-0.5
  0
LTYPE
  2
DIVIDE
 70
    64
  3
____ . . ____ . . ____ . . ____ . . ____ . . __
 72
    65
 73
     6
 40
1.25
 49
0.5
 49
-0.25
 49
0.0
 49
-0.25
 49
0.0
 49
-0.25
  0
LTYPE
  2
DIVIDE2
 70
    64
  3
__..__..__..__..__..__..__..__..__..__..__..__.
 72
    65
 73
     6
 40
0.625
 49
0.25
 49
-0.125
 49
0.0
 49
-0.125
 49
0.0
 49
-0.125
  0
LTYPE
  2
DIVIDEX2
 70
    64
  3
________  .  .  ________  .  .  ________  .  . 
 72
    65
 73
     6
 40
2.5
 49
1.0
 49
-0.5
 49
0.0
 49
-0.5
 49
0.0
 49
-0.5
  0
LTYPE
  2
DOT
 70
    64
  3
. . . . . . . . . . . . . . . . . . . . . . . .
 72
    65
 73
     2
 40
0.25
 49
0.0
 49
-0.25
  0
LTYPE
  2
DOT2
 70
    64
  3
...............................................
 72
    65
 73
     2
 40
0.125
 49
0.0
 49
-0.125
  0
LTYPE
  2
DOTX2
 70
    64
  3
.  .  .  .  .  .  .  .  .  .  .  .  .  .  .  . 
 72
    65
 73
     2
 40
0.5
 49
0.0
 49
-0.5
  0
LTYPE
  2
HIDDEN
 70
    64
  3
__ __ __ __ __ __ __ __ __ __ __ __ __ __ __ __
 72
    65
 73
     2
 40
0.375
 49
0.25
 49
-0.125
  0
LTYPE
  2
HIDDEN2
 70
    64
  3
_ _ _ _ _ _ _ _ _ _ _ _ _ _ _ _ _ _ _ _ _ _ _ _
 72
    65
 73
     2
 40
0.1875
 49
0.125
 49
-0.0625
  0
LTYPE
  2
HIDDENX2
 70
    64
  3
____ ____ ____ ____ ____ ____ ____ ____ ____ __
 72
    65
 73
     2
 40
0.75
 49
0.5
 49
-0.25
  0
LTYPE
  2
PHANTOM
 70
    64
  3
______  __  __  ______  __  __  ______  __  __ 
 72
    65
 73
     6
 40
2.5
 49
1.25
 49
-0.25
 49
0.25
 49
-0.25
 49
0.25
 49
-0.25
  0
LTYPE
  2
PHANTOM2
 70
    64
  3
___ _ _ ___ _ _ ___ _ _ ___ _ _ ___ _ _ ___ _ _
 72
    65
 73
     6
 40
1.25
 49
0.625
 49
-0.125
 49
0.125
 49
-0.125
 49
0.125
 49
-0.125
  0
LTYPE
  2
PHANTOMX2
 70
    64
  3
____________    ____    ____    ____________   
 72
    65
 73
     6
 40
5.0
 49
2.5
 49
-0.5
 49
0.5
 49
-0.5
 49
0.5
 49
-0.5
  0
ENDTAB
  0
TABLE
  2
LAYER
 70
     1
  0
LAYER
  2
0
 70
     0
 62
     7
  6
CONTINUOUS
  0
ENDTAB
  0
TABLE
  2
STYLE
 70
     1
  0
STYLE
  2
STANDARD
 70
     0
 40
0.0
 41
1.0
 50
0.0
 71
     0
 42
0.2
  3
txt
  4

  0
ENDTAB
  0
TABLE
  2
VIEW
 70
     0
  0
ENDTAB
  0
TABLE
  2
UCS
 70
     0
  0
ENDTAB
  0
TABLE
  2
APPID
 70
     1
  0
APPID
  2
ACAD
 70
    64
  0
ENDTAB
  0
TABLE
  2
DIMSTYLE
 70
     0
  0
ENDTAB
  0
ENDSEC
  0
SECTION
  2
BLOCKS
  0
ENDSEC
  0
SECTION
  2
ENTITIES
  0
POLYLINE
  8
0
 66
1
  6
CONTINUOUS
62
   5 
  0
VERTEX
  8
0
 10
 498.097349045873 
 20
-100 
 30
0.0
  0
VERTEX
  8
0
 10
 498.097349045873 
 20
-100 
 30
0.0
  0
VERTEX
  8
0
 10
 498.097349045873 
 20
-100 
 30
0.0
  0
VERTEX
  8
0
 10
 498.097349045873 
 20
-100 
 30
0.0
  0
VERTEX
  8
0
 10
 498.097349045873 
 20
-100 
 30
0.0
  0
VERTEX
  8
0
 10
 0 
 20
 0 
 30
0.0
  0
VERTEX
  8
0
 10
 0 
 20
 0 
 30
0.0
  0
VERTEX
  8
0
 10
-498.097349045873 
 20
-99.9999999999999 
 30
0.0
  0
VERTEX
  8
0
 10
-498.097349045873 
 20
-99.9999999999999 
 30
0.0
  0
VERTEX
  8
0
 10
-498.097349045873 
 20
-99.9999999999999 
 30
0.0
  0
VERTEX
  8
0
 10
-498.097349045873 
 20
-99.9999999999999 
 30
0.0
  0
VERTEX
  8
0
 10
-498.097349045873 
 20
-99.9999999999999 
 30
0.0
  0
SEQEND
  0
POLYLINE
  8
0
 66
1
  6
CONTINUOUS
62
   5 
  0
VERTEX
  8
0
 10
 498.097349045873 
 20
-200 
 30
0.0
  0
VERTEX
  8
0
 10
 498.097349045873 
 20
-200 
 30
0.0
  0
VERTEX
  8
0
 10
 498.097349045873 
 20
-200 
 30
0.0
  0
VERTEX
  8
0
 10
 498.097349045873 
 20
-200 
 30
0.0
  0
VERTEX
  8
0
 10
 498.097349045873 
 20
-200 
 30
0.0
  0
VERTEX
  8
0
 10
-2.44929359829471E-14 
 20
-200 
 30
0.0
  0
VERTEX
  8
0
 10
-2.44929359829471E-14 
 20
-200 
 30
0.0
  0
VERTEX
  8
0
 10
-498.097349045873 
 20
-200 
 30
0.0
  0
VERTEX
  8
0
 10
-498.097349045873 
 20
-200 
 30
0.0
  0
VERTEX
  8
0
 10
-498.097349045873 
 20
-200 
 30
0.0
  0
VERTEX
  8
0
 10
-498.097349045873 
 20
-200 
 30
0.0
  0
VERTEX
  8
0
 10
-498.097349045873 
 20
-200 
 30
0.0
  0
SEQEND
  0
LINE
  8
0
62
   1 
10
-498.097349045873 
20
-100 
30
0.00
11
-498.097349045873 
21
-200 
31
0.00
  0
LINE
  8
0
62
   1 
10
-498.097349045873 
20
-100 
30
0.00
11
-498.097349045873 
21
-200 
31
0.00
  0
LINE
  8
0
62
   1 
10
-498.097349045873 
20
-100 
30
0.00
11
-498.097349045873 
21
-200 
31
0.00
  0
LINE
  8
0
62
   1 
10
-498.097349045873 
20
-100 
30
0.00
11
-498.097349045873 
21
-200 
31
0.00
  0
LINE
  8
0
62
   1 
10
-498.097349045873 
20
-100 
30
0.00
11
-498.097349045873 
21
-200 
31
0.00
  0
LINE
  8
0
62
   1 
10
 0 
20
-0 
30
0.00
11
 0 
21
-200 
31
0.00
  0
LINE
  8
0
62
   1 
10
 0 
20
-0 
30
0.00
11
 0 
21
-200 
31
0.00
  0
LINE
  8
0
62
   1 
10
 498.097349045873 
20
-100 
30
0.00
11
 498.097349045873 
21
-200 
31
0.00
  0
LINE
  8
0
62
   1 
10
 498.097349045873 
20
-100 
30
0.00
11
 498.097349045873 
21
-200 
31
0.00
  0
LINE
  8
0
62
   1 
10
 498.097349045873 
20
-100 
30
0.00
11
 498.097349045873 
21
-200 
31
0.00
  0
LINE
  8
0
62
   1 
10
 498.097349045873 
20
-100 
30
0.00
11
 498.097349045873 
21
-200 
31
0.00
  0
LINE
  8
0
62
   1 
10
 498.097349045873 
20
-100 
30
0.00
11
 498.097349045873 
21
-200 
31
0.00
  0
POLYLINE
  8
0
 66
1
  6
CONTINUOUS
62
   5 
  0
VERTEX
  8
0
 10
 126.066 
 20
-923.163023 
 30
0.0
  0
VERTEX
  8
0
 10
 126.066 
 20
-923.163023 
 30
0.0
  0
VERTEX
  8
0
 10
 126.066 
 20
-923.163023 
 30
0.0
  0
VERTEX
  8
0
 10
 126.066 
 20
-923.163023 
 30
0.0
  0
VERTEX
  8
0
 10
 126.066 
 20
-923.163023 
 30
0.0
  0
VERTEX
  8
0
 10
 19.9999999999999 
 20
-873.163023 
 30
0.0
  0
VERTEX
  8
0
 10
-20.0000000000001 
 20
-873.163023 
 30
0.0
  0
VERTEX
  8
0
 10
-126.066 
 20
-923.163023 
 30
0.0
  0
VERTEX
  8
0
 10
-126.066 
 20
-923.163023 
 30
0.0
  0
VERTEX
  8
0
 10
-126.066 
 20
-923.163023 
 30
0.0
  0
VERTEX
  8
0
 10
-126.066 
 20
-923.163023 
 30
0.0
  0
VERTEX
  8
0
 10
-126.066 
 20
-923.163023 
 30
0.0
  0
SEQEND
  0
POLYLINE
  8
0
 66
1
  6
CONTINUOUS
62
   5 
  0
VERTEX
  8
0
 10
 126.066 
 20
-974.584383 
 30
0.0
  0
VERTEX
  8
0
 10
 126.066 
 20
-974.584383 
 30
0.0
  0
VERTEX
  8
0
 10
 126.066 
 20
-974.584383 
 30
0.0
  0
VERTEX
  8
0
 10
 126.066 
 20
-974.584383 
 30
0.0
  0
VERTEX
  8
0
 10
 126.066 
 20
-974.584383 
 30
0.0
  0
VERTEX
  8
0
 10
 19.9999999999999 
 20
-963.163023 
 30
0.0
  0
VERTEX
  8
0
 10
-20.0000000000001 
 20
-963.163023 
 30
0.0
  0
VERTEX
  8
0
 10
-126.066 
 20
-974.584383 
 30
0.0
  0
VERTEX
  8
0
 10
-126.066 
 20
-974.584383 
 30
0.0
  0
VERTEX
  8
0
 10
-126.066 
 20
-974.584383 
 30
0.0
  0
VERTEX
  8
0
 10
-126.066 
 20
-974.584383 
 30
0.0
  0
VERTEX
  8
0
 10
-126.066 
 20
-974.584383 
 30
0.0
  0
SEQEND
  0
LINE
  8
0
62
   1 
10
-126.066 
20
-923.163023 
30
0.00
11
-126.066 
21
-974.584383 
31
0.00
  0
LINE
  8
0
62
   1 
10
-126.066 
20
-923.163023 
30
0.00
11
-126.066 
21
-974.584383 
31
0.00
  0
LINE
  8
0
62
   1 
10
-126.066 
20
-923.163023 
30
0.00
11
-126.066 
21
-974.584383 
31
0.00
  0
LINE
  8
0
62
   1 
10
-126.066 
20
-923.163023 
30
0.00
11
-126.066 
21
-974.584383 
31
0.00
  0
LINE
  8
0
62
   1 
10
-126.066 
20
-923.163023 
30
0.00
11
-126.066 
21
-974.584383 
31
0.00
  0
LINE
  8
0
62
   1 
10
-20 
20
-873.163023 
30
0.00
11
-20 
21
-963.163023 
31
0.00
  0
LINE
  8
0
62
   1 
10
 20 
20
-873.163023 
30
0.00
11
 20 
21
-963.163023 
31
0.00
  0
LINE
  8
0
62
   1 
10
 126.066 
20
-923.163023 
30
0.00
11
 126.066 
21
-974.584383 
31
0.00
  0
LINE
  8
0
62
   1 
10
 126.066 
20
-923.163023 
30
0.00
11
 126.066 
21
-974.584383 
31
0.00
  0
LINE
  8
0
62
   1 
10
 126.066 
20
-923.163023 
30
0.00
11
 126.066 
21
-974.584383 
31
0.00
  0
LINE
  8
0
62
   1 
10
 126.066 
20
-923.163023 
30
0.00
11
 126.066 
21
-974.584383 
31
0.00
  0
LINE
  8
0
62
   1 
10
 126.066 
20
-923.163023 
30
0.00
11
 126.066 
21
-974.584383 
31
0.00
  0
POLYLINE
  8
0
 66
1
  6
CONTINUOUS
62
   5 
  0
VERTEX
  8
0
 10
 2.57175827820944E-14 
 20
 210 
 30
0.0
  0
VERTEX
  8
0
 10
 20 
 20
 189 
 30
0.0
  0
VERTEX
  8
0
 10
 27.5 
 20
 168 
 30
0.0
  0
VERTEX
  8
0
 10
 40 
 20
 126 
 30
0.0
  0
VERTEX
  8
0
 10
 48.5 
 20
 63 
 30
0.0
  0
VERTEX
  8
0
 10
 50 
 20
-6.12323399573677E-15 
 30
0.0
  0
VERTEX
  8
0
 10
 50 
 20
-100 
 30
0.0
  0
VERTEX
  8
0
 10
 35.625 
 20
-292.632604 
 30
0.0
  0
VERTEX
  8
0
 10
 12.4999999999999 
 20
-943.8997596 
 30
0.0
  0
VERTEX
  8
0
 10
-1.1795345095001E-13 
 20
-963.16302 
 30
0.0
  0
SEQEND
  0
POLYLINE
  8
0
 66
1
  6
CONTINUOUS
62
   5 
  0
VERTEX
  8
0
 10
 2.57175827820944E-14 
 20
 210 
 30
0.0
  0
VERTEX
  8
0
 10
-20 
 20
 189 
 30
0.0
  0
VERTEX
  8
0
 10
-27.5 
 20
 168 
 30
0.0
  0
VERTEX
  8
0
 10
-40 
 20
 126 
 30
0.0
  0
VERTEX
  8
0
 10
-48.5 
 20
 63 
 30
0.0
  0
VERTEX
  8
0
 10
-50 
 20
 6.12323399573677E-15 
 30
0.0
  0
VERTEX
  8
0
 10
-50 
 20
-100 
 30
0.0
  0
VERTEX
  8
0
 10
-35.625 
 20
-292.632604 
 30
0.0
  0
VERTEX
  8
0
 10
-12.5000000000001 
 20
-943.8997596 
 30
0.0
  0
VERTEX
  8
0
 10
-1.1795345095001E-13 
 20
-963.16302 
 30
0.0
  0
SEQEND
  0
LINE
  8
0
  6
CENTERX2
62
   1 
10
 0 
20
 210 
30
0.00
11
 0 
21
-963.16302 
31
0.00
  0
CIRCLE
  8
0
  6
CONTINUOUS
62
     1 
10
 0 
20
-91.13309 
30
 0 
40
 10 
  0
LINE
  8
0
  6
CENTERX2
62
   1 
10
-10 
20
-91.13309 
30
0.00
11
 10 
21
-91.13309 
31
0.00
  0
POLYLINE
  8
0
 66
1
  6
CONTINUOUS
62
   5 
  0
VERTEX
  8
0
 10
-498.097349045873 
 20
 619.599282023829 
 30
0.0
  0
VERTEX
  8
0
 10
-498.097349045873 
 20
 619.599282023829 
 30
0.0
  0
VERTEX
  8
0
 10
-498.097349045873 
 20
 619.599282023829 
 30
0.0
  0
VERTEX
  8
0
 10
-498.097349045873 
 20
 619.599282023829 
 30
0.0
  0
VERTEX
  8
0
 10
-498.097349045873 
 20
 619.599282023829 
 30
0.0
  0
VERTEX
  8
0
 10
 0 
 20
 576.02141065 
 30
0.0
  0
VERTEX
  8
0
 10
 0 
 20
 576.02141065 
 30
0.0
  0
VERTEX
  8
0
 10
 498.097349045873 
 20
 619.599282023829 
 30
0.0
  0
VERTEX
  8
0
 10
 498.097349045873 
 20
 619.599282023829 
 30
0.0
  0
VERTEX
  8
0
 10
 498.097349045873 
 20
 619.599282023829 
 30
0.0
  0
VERTEX
  8
0
 10
 498.097349045873 
 20
 619.599282023829 
 30
0.0
  0
VERTEX
  8
0
 10
 498.097349045873 
 20
 619.599282023829 
 30
0.0
  0
SEQEND
  0
POLYLINE
  8
0
 66
1
  6
CONTINUOUS
62
   5 
  0
VERTEX
  8
0
 10
-126.066 
 20
 576.02141065 
 30
0.0
  0
VERTEX
  8
0
 10
-126.066 
 20
 576.02141065 
 30
0.0
  0
VERTEX
  8
0
 10
-126.066 
 20
 576.02141065 
 30
0.0
  0
VERTEX
  8
0
 10
-126.066 
 20
 576.02141065 
 30
0.0
  0
VERTEX
  8
0
 10
-126.066 
 20
 576.02141065 
 30
0.0
  0
VERTEX
  8
0
 10
-20 
 20
 576.02141065 
 30
0.0
  0
VERTEX
  8
0
 10
 20 
 20
 576.02141065 
 30
0.0
  0
VERTEX
  8
0
 10
 126.066 
 20
 576.02141065 
 30
0.0
  0
VERTEX
  8
0
 10
 126.066 
 20
 576.02141065 
 30
0.0
  0
VERTEX
  8
0
 10
 126.066 
 20
 576.02141065 
 30
0.0
  0
VERTEX
  8
0
 10
 126.066 
 20
 576.02141065 
 30
0.0
  0
VERTEX
  8
0
 10
 126.066 
 20
 576.02141065 
 30
0.0
  0
SEQEND
  0
LINE
  8
0
62
   5 
10
 0 
20
 556.02141065 
30
0.00
11
 0 
21
 677.233531862121 
31
0.00
  0
POLYLINE
  8
0
 66
1
  6
CONTINUOUS
62
   5 
  0
VERTEX
  8
0
 10
 0 
 20
 586.02141065 
 30
0.0
  0
VERTEX
  8
0
 10
-20 
 20
 585.188077316667 
 30
0.0
  0
VERTEX
  8
0
 10
-27.5 
 20
 584.354743983333 
 30
0.0
  0
VERTEX
  8
0
 10
-40 
 20
 577.688077316667 
 30
0.0
  0
VERTEX
  8
0
 10
-48.5 
 20
 561.02141065 
 30
0.0
  0
VERTEX
  8
0
 10
-50 
 20
 536.02141065 
 30
0.0
  0
VERTEX
  8
0
 10
-50 
 20
 511.02141065 
 30
0.0
  0
VERTEX
  8
0
 10
-35.625 
 20
 490.188077316667 
 30
0.0
  0
VERTEX
  8
0
 10
-12.5 
 20
 486.854743983333 
 30
0.0
  0
VERTEX
  8
0
 10
 0 
 20
 486.02141065 
 30
0.0
  0
SEQEND
  0
POLYLINE
  8
0
 66
1
  6
CONTINUOUS
62
   5 
  0
VERTEX
  8
0
 10
 0 
 20
 586.02141065 
 30
0.0
  0
VERTEX
  8
0
 10
 20 
 20
 585.188077316667 
 30
0.0
  0
VERTEX
  8
0
 10
 27.5 
 20
 584.354743983333 
 30
0.0
  0
VERTEX
  8
0
 10
 40 
 20
 577.688077316667 
 30
0.0
  0
VERTEX
  8
0
 10
 48.5 
 20
 561.02141065 
 30
0.0
  0
VERTEX
  8
0
 10
 50 
 20
 536.02141065 
 30
0.0
  0
VERTEX
  8
0
 10
 50 
 20
 511.02141065 
 30
0.0
  0
VERTEX
  8
0
 10
 35.625 
 20
 490.188077316667 
 30
0.0
  0
VERTEX
  8
0
 10
 12.5 
 20
 486.854743983333 
 30
0.0
  0
VERTEX
  8
0
 10
 0 
 20
 486.02141065 
 30
0.0
  0
SEQEND
  0
POLYLINE
  8
0
 66
1
  6
CONTINUOUS
62
   7 
  0
VERTEX
  8
0
 10
 1644.57375066254 
 20
-199.969539031278 
 30
0.0
  0
VERTEX
  8
0
 10
 1644.86645839494 
 20
-199.358554429677 
 30
0.0
  0
VERTEX
  8
0
 10
 1645.7180022913 
 20
-197.673159226003 
 30
0.0
  0
VERTEX
  8
0
 10
 1646.9724263533 
 20
-195.138665928972 
 30
0.0
  0
VERTEX
  8
0
 10
 1648.3971027242 
 20
-191.789019792708 
 30
0.0
  0
VERTEX
  8
0
 10
 1649.89537271278 
 20
-187.546522056547 
 30
0.0
  0
VERTEX
  8
0
 10
 1651.48123418676 
 20
-182.41141705418 
 30
0.0
  0
VERTEX
  8
0
 10
 1653.14343209594 
 20
-176.455519295593 
 30
0.0
  0
VERTEX
  8
0
 10
 1654.83864645422 
 20
-169.754084204549 
 30
0.0
  0
VERTEX
  8
0
 10
 1656.53359065728 
 20
-162.380542033482 
 30
0.0
  0
VERTEX
  8
0
 10
 1658.18487490941 
 20
-154.414147596935 
 30
0.0
  0
VERTEX
  8
0
 10
 1659.75907298705 
 20
-145.936329928905 
 30
0.0
  0
VERTEX
  8
0
 10
 1661.22072406641 
 20
-137.030482853965 
 30
0.0
  0
VERTEX
  8
0
 10
 1662.54226139084 
 20
-127.786138902113 
 30
0.0
  0
VERTEX
  8
0
 10
 1663.69601348925 
 20
-118.298829689517 
 30
0.0
  0
VERTEX
  8
0
 10
 1664.65637839556 
 20
-108.660122346375 
 30
0.0
  0
VERTEX
  8
0
 10
 1665.40371832505 
 20
-98.9636884127177 
 30
0.0
  0
VERTEX
  8
0
 10
 1665.91636089281 
 20
-89.3051642191505 
 30
0.0
  0
VERTEX
  8
0
 10
 1666.18277181011 
 20
-79.7723618387829 
 30
0.0
  0
VERTEX
  8
0
 10
 1666.19338157881 
 20
-70.4551279449275 
 30
0.0
  0
VERTEX
  8
0
 10
 1665.94465469177 
 20
-61.4414142299451 
 30
0.0
  0
VERTEX
  8
0
 10
 1665.43323016588 
 20
-52.8091739092453 
 30
0.0
  0
VERTEX
  8
0
 10
 1664.6677800952 
 20
-44.6345699317241 
 30
0.0
  0
VERTEX
  8
0
 10
 1663.65911588845 
 20
-36.9858013695294 
 30
0.0
  0
VERTEX
  8
0
 10
 1662.42211815473 
 20
-29.9271377136543 
 30
0.0
  0
VERTEX
  8
0
 10
 1660.98577008532 
 20
-23.517093702611 
 30
0.0
  0
VERTEX
  8
0
 10
 1659.37319540459 
 20
-17.8060805789118 
 30
0.0
  0
VERTEX
  8
0
 10
 1657.62368992409 
 20
-12.8347903466204 
 30
0.0
  0
VERTEX
  8
0
 10
 1655.77454975996 
 20
-8.64388010498763 
 30
0.0
  0
VERTEX
  8
0
 10
 1653.87541824885 
 20
-5.25421942823858 
 30
0.0
  0
VERTEX
  8
0
 10
 1651.97986830853 
 20
-2.69074709100457 
 30
0.0
  0
VERTEX
  8
0
 10
 1650.16381855422 
 20
-0.958788866955485 
 30
0.0
  0
VERTEX
  8
0
 10
 1648.5390774037 
 20
-7.02979025638432E-02 
 30
0.0
  0
VERTEX
  8
0
 10
 1647.29057950494 
 20
-0.202528749197072 
 30
0.0
  0
VERTEX
  8
0
 10
 1646.30565394089 
 20
-1.50753818720115 
 30
0.0
  0
VERTEX
  8
0
 10
 1645.41354857643 
 20
-3.91233506400793 
 30
0.0
  0
VERTEX
  8
0
 10
 1644.67547594172 
 20
-7.34797718534269 
 30
0.0
  0
VERTEX
  8
0
 10
 1644.12002515404 
 20
-11.7809583969504 
 30
0.0
  0
VERTEX
  8
0
 10
 1643.76568213928 
 20
-17.1835971066824 
 30
0.0
  0
VERTEX
  8
0
 10
 1643.61314499371 
 20
-23.5158994067326 
 30
0.0
  0
VERTEX
  8
0
 10
 1643.66325143283 
 20
-30.7298726077335 
 30
0.0
  0
VERTEX
  8
0
 10
 1643.90291111405 
 20
-38.7732802958467 
 30
0.0
  0
VERTEX
  8
0
 10
 1644.31334875191 
 20
-47.5757840842827 
 30
0.0
  0
VERTEX
  8
0
 10
 1644.87189438462 
 20
-57.0609766904549 
 30
0.0
  0
VERTEX
  8
0
 10
 1645.54205470671 
 20
-67.1422080211354 
 30
0.0
  0
VERTEX
  8
0
 10
 1646.28761565123 
 20
-77.7168304199736 
 30
0.0
  0
VERTEX
  8
0
 10
 1647.06843357006 
 20
-88.6781270302125 
 30
0.0
  0
VERTEX
  8
0
 10
 1647.83468048145 
 20
-99.901209212518 
 30
0.0
  0
VERTEX
  8
0
 10
 1648.54466680446 
 20
-111.253329165246 
 30
0.0
  0
VERTEX
  8
0
 10
 1649.14680919565 
 20
-122.595565476518 
 30
0.0
  0
VERTEX
  8
0
 10
 1649.60383632262 
 20
-133.771243809631 
 30
0.0
  0
VERTEX
  8
0
 10
 1649.87440765254 
 20
-144.627619409039 
 30
0.0
  0
VERTEX
  8
0
 10
 1649.92742546327 
 20
-154.998124175527 
 30
0.0
  0
VERTEX
  8
0
 10
 1649.74379020497 
 20
-164.716399438757 
 30
0.0
  0
VERTEX
  8
0
 10
 1649.30847152822 
 20
-173.612156947237 
 30
0.0
  0
VERTEX
  8
0
 10
 1648.62250645635 
 20
-181.511388297196 
 30
0.0
  0
VERTEX
  8
0
 10
 1647.69107102273 
 20
-188.23215611293 
 30
0.0
  0
VERTEX
  8
0
 10
 1646.57644968566 
 20
-193.529510101002 
 30
0.0
  0
VERTEX
  8
0
 10
 1645.52020139232 
 20
-197.201635308944 
 30
0.0
  0
VERTEX
  8
0
 10
 1644.81154897321 
 20
-199.295586537817 
 30
0.0
  0
VERTEX
  8
0
 10
 1644.57375066254 
 20
-199.969539031278 
 30
0.0
  0
SEQEND
  0
LINE
  8
0
62
   1 
10
 1648.06423195 
20
 0 
30
0.00
11
 1644.57375066254 
21
-199.969539031278 
31
0.00
  0
TEXT
  8
0
62
   7 
10
 1648.06423195 
20
 0 
30
 0 
40
 8 
  1
e216 + 1°
50
-90 
  0
POLYLINE
  8
0
 66
1
  6
CONTINUOUS
62
   7 
  0
VERTEX
  8
0
 10
 1650.2822417857 
 20
-963.135706355165 
 30
0.0
  0
VERTEX
  8
0
 10
 1650.62072286664 
 20
-954.361752944767 
 30
0.0
  0
VERTEX
  8
0
 10
 1650.94052999684 
 20
-944.135229231917 
 30
0.0
  0
VERTEX
  8
0
 10
 1651.26033712704 
 20
-933.908705519067 
 30
0.0
  0
VERTEX
  8
0
 10
 1650.97161773847 
 20
-921.884571335074 
 30
0.0
  0
VERTEX
  8
0
 10
 1650.68458348253 
 20
-909.930616922583 
 30
0.0
  0
VERTEX
  8
0
 10
 1650.40718472847 
 20
-898.377946844578 
 30
0.0
  0
VERTEX
  8
0
 10
 1650.15491173384 
 20
-887.871675154478 
 30
0.0
  0
VERTEX
  8
0
 10
 1649.90875274601 
 20
-877.620030071239 
 30
0.0
  0
VERTEX
  8
0
 10
 1649.03092485274 
 20
-874.130096457286 
 30
0.0
  0
VERTEX
  8
0
 10
 1648.06423195 
 20
-873.163023 
 30
0.0
  0
VERTEX
  8
0
 10
 1647.14506842879 
 20
-874.175378995331 
 30
0.0
  0
VERTEX
  8
0
 10
 1646.43575379733 
 20
-877.703422531569 
 30
0.0
  0
VERTEX
  8
0
 10
 1646.68191278516 
 20
-887.955067614809 
 30
0.0
  0
VERTEX
  8
0
 10
 1646.93418577979 
 20
-898.461339304908 
 30
0.0
  0
VERTEX
  8
0
 10
 1647.21158453384 
 20
-910.014009382914 
 30
0.0
  0
VERTEX
  8
0
 10
 1647.49861878979 
 20
-921.967963795405 
 30
0.0
  0
VERTEX
  8
0
 10
 1647.78733817835 
 20
-933.992097979398 
 30
0.0
  0
VERTEX
  8
0
 10
 1648.59760531747 
 20
-944.191486736244 
 30
0.0
  0
VERTEX
  8
0
 10
 1649.40787245658 
 20
-954.390875493089 
 30
0.0
  0
VERTEX
  8
0
 10
 1650.16707498118 
 20
-963.138471701 
 30
0.0
  0
SEQEND
  0
LINE
  8
0
62
   1 
10
 1648.06423195 
20
-873.163023 
30
0.00
11
 1650.22465838344 
21
-963.137089028082 
31
0.00
  0
TEXT
  8
0
62
   7 
10
 1648.06423195 
20
-873.163023 
30
 0 
40
 8 
  1
Planche --1.4°
50
-90 
  0
POLYLINE
  8
0
 66
1
  6
CONTINUOUS
62
   5 
  0
VERTEX
  8
0
 10
 1628.06423195 
 20
-873.16302 
 30
0.0
  0
VERTEX
  8
0
 10
 1628.06423195 
 20
-963.16302 
 30
0.0
  0
VERTEX
  8
0
 10
 1749.27635316212 
 20
-963.16302 
 30
0.0
  0
VERTEX
  8
0
 10
 1749.27635316212 
 20
-904.66302 
 30
0.0
  0
VERTEX
  8
0
 10
 1628.06423195 
 20
-873.16302 
 30
0.0
  0
SEQEND
  0
POLYLINE
  8
0
 66
1
  6
CONTINUOUS
62
   5 
  0
VERTEX
  8
0
 10
 1608.06423195 
 20
 210 
 30
0.0
  0
VERTEX
  8
0
 10
 1600.06423195 
 20
 189 
 30
0.0
  0
VERTEX
  8
0
 10
 1597.06423195 
 20
 168 
 30
0.0
  0
VERTEX
  8
0
 10
 1592.06423195 
 20
 126 
 30
0.0
  0
VERTEX
  8
0
 10
 1588.66423195 
 20
 63 
 30
0.0
  0
VERTEX
  8
0
 10
 1588.06423195 
 20
 2.44929359829471E-15 
 30
0.0
  0
VERTEX
  8
0
 10
 1588.06423195 
 20
-100 
 30
0.0
  0
VERTEX
  8
0
 10
 1593.81423195 
 20
-292.632604 
 30
0.0
  0
VERTEX
  8
0
 10
 1603.06423195 
 20
-943.8997596 
 30
0.0
  0
VERTEX
  8
0
 10
 1608.06423195 
 20
-963.16302 
 30
0.0
  0
SEQEND
  0
POLYLINE
  8
0
 66
1
  6
CONTINUOUS
62
   5 
  0
VERTEX
  8
0
 10
 1608.06423195 
 20
 210 
 30
0.0
  0
VERTEX
  8
0
 10
 1616.06423195 
 20
 189 
 30
0.0
  0
VERTEX
  8
0
 10
 1619.06423195 
 20
 168 
 30
0.0
  0
VERTEX
  8
0
 10
 1624.06423195 
 20
 126 
 30
0.0
  0
VERTEX
  8
0
 10
 1627.46423195 
 20
 63 
 30
0.0
  0
VERTEX
  8
0
 10
 1628.06423195 
 20
 2.44929359829471E-15 
 30
0.0
  0
VERTEX
  8
0
 10
 1628.06423195 
 20
-100 
 30
0.0
  0
VERTEX
  8
0
 10
 1622.31423195 
 20
-292.632604 
 30
0.0
  0
VERTEX
  8
0
 10
 1613.06423195 
 20
-943.8997596 
 30
0.0
  0
VERTEX
  8
0
 10
 1608.06423195 
 20
-963.16302 
 30
0.0
  0
SEQEND
  0
LINE
  8
0
  6
CENTERX2
62
   1 
10
 1608.06423195 
20
 210 
30
0.00
11
 1608.06423195 
21
-963.16302 
31
0.00
  0
ENDSEC
  0
EOF
